<svg width="16" height="16" viewBox="0 0 16 16" fill="none" xmlns="http://www.w3.org/2000/svg">
<path d="M5.33325 11.2533L6.49992 10.3533C6.61992 10.2599 6.78659 10.2533 6.91325 10.3399L7.90659 11.0266L9.55992 9.65993C9.68659 9.55993 9.85992 9.55326 9.99325 9.64659L11.3266 10.6133" stroke="#888888" stroke-miterlimit="10" stroke-linecap="round" stroke-linejoin="round"/>
<path d="M3.66663 2.33329V12.4333C3.66663 12.8 3.96663 13.1 4.33329 13.1H12.3333C12.7 13.1 13 12.8 13 12.4333V4.39329C11.9333 3.32663 11.34 2.73329 10.2733 1.66663H4.33329C3.96663 1.66663 3.66663 1.96663 3.66663 2.33329Z" stroke="#888888" stroke-miterlimit="10" stroke-linecap="round" stroke-linejoin="round"/>
<path d="M10.2733 1.66663V3.73329C10.2733 4.09996 10.5733 4.39996 10.94 4.39996H13" stroke="#888888" stroke-miterlimit="10" stroke-linecap="round" stroke-linejoin="round"/>
<path d="M5.59302 4.40002H8.01302" stroke="#888888" stroke-miterlimit="10" stroke-linecap="round" stroke-linejoin="round"/>
<path d="M5.59338 6.55994H10.9534" stroke="#888888" stroke-miterlimit="10" stroke-linecap="round" stroke-linejoin="round"/>
</svg>
