<svg width="32" height="32" viewBox="0 0 32 32" fill="none" xmlns="http://www.w3.org/2000/svg">
<path d="M25.72 18.29C25.7 20.2 24.91 22.03 23.54 23.36L22.96 26.66C22.9 27 22.6 27.25 22.25 27.25H20.94C20.73 27.25 20.53 27.16 20.39 27C20.31 26.9 20.25 26.79 20.23 26.66L20.03 25.55C17.67 26.39 15.1 26.39 12.74 25.55L12.54 26.66C12.5 27.01 12.2 27.26 11.85 27.26H10.55C10.34 27.26 10.14 27.17 10 27.01C9.92 26.91 9.86 26.8 9.84 26.67L9.26 23.37C8.34 22.46 7.67 21.33 7.32 20.09H7.08C6.49 20.09 6 19.61 6 19.01V16.86C6 16.27 6.48 15.78 7.08 15.78H7.56C8.09 14.48 8.95 13.35 10.06 12.5L9.34 11.49C9.26 11.39 9.22 11.26 9.23 11.13C9.23 10.9 9.35 10.69 9.55 10.58C10.91 9.82004 12.58 9.86004 13.91 10.68C14.36 10.58 14.83 10.5 15.3 10.46C16.18 10.34 16.89 10.38 17.5 10.46C19.81 10.66 21.98 11.66 23.62 13.3C24.95 14.62 25.7 16.41 25.72 18.29Z" fill="#BB90FF"/>
<path d="M15.54 12.24C15.54 12.24 17.25 11.6 19.56 12.76" stroke="#5151F9" stroke-miterlimit="10" stroke-linecap="round"/>
<path d="M19.78 6.45996V5.56996C19.97 5.59996 20.15 5.67996 20.3 5.79996C20.33 5.81996 20.37 5.82996 20.4 5.82996C20.52 5.82996 20.61 5.72996 20.62 5.61996C20.62 5.56996 20.6 5.51996 20.56 5.47996C20.34 5.28996 20.06 5.17996 19.77 5.15996V4.85996C19.77 4.77996 19.7 4.70996 19.62 4.70996C19.62 4.70996 19.62 4.70996 19.61 4.70996C19.52 4.70996 19.45 4.77996 19.45 4.85996V5.14996C18.88 5.18996 18.5 5.53996 18.5 5.99996C18.5 6.56996 18.98 6.72996 19.45 6.84996V7.84996C19.2 7.81996 18.97 7.71996 18.78 7.55996C18.74 7.52996 18.7 7.51996 18.65 7.50996C18.53 7.51996 18.45 7.60996 18.45 7.72996C18.45 7.77996 18.47 7.82996 18.51 7.86996C18.77 8.09996 19.1 8.23996 19.45 8.24996V8.52996C19.45 8.52996 19.45 8.52996 19.45 8.53996C19.45 8.62996 19.53 8.68996 19.61 8.68996C19.69 8.68996 19.76 8.61996 19.76 8.53996V8.25996C20.45 8.20996 20.72 7.79996 20.72 7.35996C20.75 6.75996 20.25 6.57996 19.78 6.45996ZM19.47 6.37996C19.2 6.29996 18.98 6.21996 18.98 5.97996C18.98 5.74996 19.17 5.57996 19.47 5.55996V6.37996ZM19.78 7.86996V6.95996C20.06 7.03996 20.28 7.14996 20.28 7.40996C20.29 7.59996 20.16 7.82996 19.78 7.86996Z" fill="#5151F9"/>
<path d="M19.61 9.42C21.1067 9.42 22.32 8.20669 22.32 6.71C22.32 5.21331 21.1067 4 19.61 4C18.1133 4 16.9 5.21331 16.9 6.71C16.9 8.20669 18.1133 9.42 19.61 9.42Z" stroke="#5151F9" stroke-miterlimit="10" stroke-linecap="round"/>
</svg>
