<svg width="16" height="16" viewBox="0 0 16 16" fill="none" xmlns="http://www.w3.org/2000/svg">
<path d="M12.66 4.05998C12.4866 3.85332 12.2 3.79332 11.9466 3.87332C11.4066 4.05332 10.7933 4.00665 10.26 3.70665C9.72664 3.39998 9.37997 2.89332 9.25997 2.33998C9.19997 2.07332 8.99997 1.85332 8.7333 1.81332C8.06664 1.70665 7.3733 1.70665 6.6933 1.81998C6.42663 1.86665 6.2333 2.07998 6.1733 2.34665C6.0533 2.90665 5.7133 3.41332 5.17997 3.72665C4.64663 4.03998 4.0333 4.07998 3.4933 3.90665C3.23997 3.82665 2.9533 3.88665 2.77997 4.09332C2.34663 4.63332 2.00663 5.23332 1.7733 5.86665C1.67997 6.11998 1.7733 6.39998 1.9733 6.57332C2.3933 6.95998 2.65997 7.51332 2.66663 8.12665C2.66663 8.74665 2.39997 9.29332 1.97997 9.67998C1.77997 9.85998 1.6933 10.14 1.78663 10.3866C1.90663 10.7 2.0533 11.0133 2.22663 11.3133C2.39997 11.6133 2.59997 11.8933 2.8133 12.1533C2.98663 12.36 3.2733 12.42 3.52663 12.34C4.06663 12.16 4.67997 12.2067 5.2133 12.5067C5.74663 12.8133 6.0933 13.32 6.2133 13.8733C6.2733 14.1333 6.46663 14.3533 6.7333 14.3933C7.40663 14.5 8.0933 14.5 8.7733 14.3867C9.03997 14.34 9.2333 14.1267 9.2933 13.86C9.4133 13.3 9.7533 12.7933 10.2866 12.48C10.82 12.1666 11.4333 12.1267 11.9733 12.3C12.2333 12.38 12.52 12.32 12.6866 12.1066C13.12 11.5666 13.46 10.9666 13.7 10.3333C13.7933 10.08 13.7 9.79998 13.5 9.62665C13.0733 9.24665 12.8066 8.69332 12.8 8.07998C12.8 7.45998 13.0666 6.91332 13.4866 6.52665C13.6866 6.34665 13.7733 6.06665 13.68 5.81998C13.56 5.50665 13.4133 5.19332 13.24 4.89332C13.0733 4.59332 12.8733 4.31998 12.66 4.05998Z" stroke="#888888" stroke-miterlimit="10" stroke-linecap="round" stroke-linejoin="round"/>
<path d="M7.73993 10.08C8.82978 10.08 9.71327 9.19651 9.71327 8.10666C9.71327 7.01682 8.82978 6.13333 7.73993 6.13333C6.65009 6.13333 5.7666 7.01682 5.7666 8.10666C5.7666 9.19651 6.65009 10.08 7.73993 10.08Z" stroke="#888888" stroke-miterlimit="10" stroke-linecap="round" stroke-linejoin="round"/>
</svg>
