<svg width="16" height="10" viewBox="0 0 16 10" fill="none" xmlns="http://www.w3.org/2000/svg">
<path d="M3.52112 4.15081C3.52112 4.15081 4.12112 2.48415 5.59445 2.43748C6.56778 2.41081 7.18112 2.65748 7.48112 2.83081C7.66778 2.93748 7.88778 2.98415 8.10778 2.98415H10.7411C11.2145 2.98415 11.6011 3.37081 11.6011 3.84415C11.6011 4.31081 11.2345 4.69081 10.7678 4.70415L7.81445 4.80415" stroke="#888888" stroke-width="1.2" stroke-miterlimit="10" stroke-linecap="round" stroke-linejoin="round"/>
<path d="M11.3215 3.20411L13.5882 1.22411C13.9082 0.944114 14.3815 0.924114 14.7215 1.17745C15.1215 1.47745 15.2082 2.04411 14.9015 2.44411C14.1615 3.42411 12.7882 5.17078 11.6015 6.31745C11.3415 6.56411 11.0082 6.71078 10.6548 6.74411L6.1615 7.12411" stroke="#888888" stroke-width="1.2" stroke-miterlimit="10" stroke-linecap="round" stroke-linejoin="round"/>
<path d="M5.56806 8.25077L4.48806 9.05743C4.42806 9.1041 4.34806 9.09077 4.3014 9.03077L1.02806 4.6641C0.981395 4.6041 0.994729 4.5241 1.05473 4.47743L2.13473 3.67077C2.42806 3.45077 2.84806 3.51077 3.06806 3.8041L5.7014 7.31744C5.9214 7.61744 5.8614 8.03077 5.56806 8.25077Z" stroke="#888888" stroke-width="1.2" stroke-miterlimit="10" stroke-linecap="round" stroke-linejoin="round"/>
</svg>
